<?xml version="1.0" encoding="UTF-8" standalone="no"?>
<!-- Created with Inkscape (http://www.inkscape.org/) -->

<svg
   xmlns:dc="http://purl.org/dc/elements/1.1/"
   xmlns:cc="http://creativecommons.org/ns#"
   xmlns:rdf="http://www.w3.org/1999/02/22-rdf-syntax-ns#"
   xmlns:svg="http://www.w3.org/2000/svg"
   xmlns="http://www.w3.org/2000/svg"
   xmlns:sodipodi="http://sodipodi.sourceforge.net/DTD/sodipodi-0.dtd"
   xmlns:inkscape="http://www.inkscape.org/namespaces/inkscape"
   width="189"
   height="216"
   id="svg2"
   version="1.1"
   inkscape:version="0.48.1 r9760"
   sodipodi:docname="business card.svg">
  <defs
     id="defs4" />
  <sodipodi:namedview
     id="base"
     pagecolor="#ffffff"
     bordercolor="#666666"
     borderopacity="1.0"
     inkscape:pageopacity="0.0"
     inkscape:pageshadow="2"
     inkscape:zoom="2"
     inkscape:cx="94.785774"
     inkscape:cy="107.71734"
     inkscape:document-units="px"
     inkscape:current-layer="layer1"
     showgrid="false"
     units="in"
     inkscape:window-width="1134"
     inkscape:window-height="713"
     inkscape:window-x="0"
     inkscape:window-y="0"
     inkscape:window-maximized="0" />
  <metadata
     id="metadata7">
    <rdf:RDF>
      <cc:Work
         rdf:about="">
        <dc:format>image/svg+xml</dc:format>
        <dc:type
           rdf:resource="http://purl.org/dc/dcmitype/StillImage" />
        <dc:title></dc:title>
      </cc:Work>
    </rdf:RDF>
  </metadata>
  <g
     inkscape:label="Layer 1"
     inkscape:groupmode="layer"
     id="layer1"
     transform="translate(0,-836.35975)">
    <text
       xml:space="preserve"
       style="font-size:18px;font-style:normal;font-variant:normal;font-weight:bold;font-stretch:normal;line-height:125%;letter-spacing:0px;word-spacing:0px;fill:#000000;fill-opacity:1;stroke:none;font-family:Monospace;-inkscape-font-specification:Monospace Bold"
       x="7.5454111"
       y="1044.1156"
       id="text3128"
       sodipodi:linespacing="125%"
       inkscape:export-filename="/Volumes/Cruzer/steve-business-card.png"
       inkscape:export-xdpi="180"
       inkscape:export-ydpi="180"><tspan
         sodipodi:role="line"
         id="tspan3130"
         x="7.5454111"
         y="1044.1156">steve iannopollo</tspan></text>
    <rect
       id="rect3151"
       width="185.68684"
       height="212.68684"
       x="1.6565788"
       y="838.01636"
       style="fill:none;stroke:#000000;stroke-width:3.31315756;stroke-miterlimit:4;stroke-opacity:1;stroke-dasharray:none"
       inkscape:export-filename="/Volumes/Cruzer/steve-business-card.png"
       inkscape:export-xdpi="180"
       inkscape:export-ydpi="180" />
    <path
       style="fill:#000000;stroke:none"
       d="m 9,997.72185 0,-20.6379 20.63793,0 20.63793,0 0,20.6379 0,20.63795 -20.63793,0 -20.63793,0 0,-20.63795 z m 35.37931,0 0,-14.7413 -14.74138,0 -14.74138,0 0,14.7413 0,14.74135 14.74138,0 14.74138,0 0,-14.74135 z m -23.58621,0 0,-8.8448 8.84483,0 8.84483,0 0,8.8448 0,8.84495 -8.84483,0 -8.84483,0 0,-8.84495 z m 47.17242,14.74135 0,-5.8965 2.94827,0 2.94828,0 0,-2.9483 0,-2.9482 2.94828,0 2.94827,0 0,-2.94835 0,-2.9482 -8.84483,0 -8.84482,0 0,-2.9483 0,-2.9483 2.94827,0 2.94828,0 0,-2.9483 0,-2.9482 -2.94828,0 -2.94827,0 0,-2.9483 0,-2.9483 -2.94828,0 -2.94828,0 0,-2.9483 0,-2.9482 -5.89655,0 -5.89655,0 0,-2.9483 0,-2.9483 -5.89655,0 -5.89655,0 0,2.9483 0,2.9483 -11.79311,0 -11.7931,0 0,-2.9483 0,-2.9483 11.7931,0 11.79311,0 0,-2.9483 0,-2.9482 -2.94828,0 -2.94827,0 0,-2.9483 0,-2.9483 -2.94828,0 -2.94828,0 0,2.9483 0,2.9483 -5.89655,0 -5.89655,0 0,-2.9483 0,-2.9483 2.94828,0 2.94827,0 0,-5.8965 0,-5.8966 -2.94827,0 -2.94828,0 0,-2.9483 0,-2.9483 2.94828,0 2.94827,0 0,2.9483 0,2.9483 2.94828,0 2.94827,0 0,2.9483 0,2.9483 2.94828,0 2.94828,0 0,-2.9483 0,-2.9483 2.94827,0 2.94828,0 0,-2.9483 0,-2.9483 -5.89655,0 -5.89656,0 0,-2.9482 0,-2.9483 2.94828,0 2.94828,0 0,-2.9483 0,-2.9483 -2.94828,0 -2.94828,0 0,-2.9482 0,-2.9483 -2.94827,0 -2.94828,0 0,5.8965 0,5.8966 -2.94827,0 -2.94828,0 0,-8.8448 0,-8.8449 2.94828,0 2.94827,0 0,-2.9482 0,-2.9483 -2.94827,0 -2.94828,0 0,-2.9483 0,-2.9483 2.94828,0 2.94827,0 0,-2.9482 0,-2.9483 5.89655,0 5.89656,0 0,2.9483 0,2.9482 2.94827,0 2.94828,0 0,5.8966 0,5.8965 -2.94828,0 -2.94827,0 0,5.8966 0,5.8965 2.94827,0 2.94828,0 0,-2.9482 0,-2.9483 8.84482,0 8.84483,0 0,-2.9483 0,-2.9483 -2.94827,0 -2.94828,0 0,-2.9482 0,-2.9483 2.94828,0 2.94827,0 0,-2.9483 0,-2.9483 -2.94827,0 -2.94828,0 0,-2.9482 0,-2.9483 2.94828,0 2.94827,0 0,2.9483 0,2.9482 2.94828,0 2.94827,0 0,2.9483 0,2.9483 2.94828,0 2.94828,0 0,-5.8966 0,-5.8965 -2.94828,0 -2.94828,0 0,-8.8448 0,-8.8449 2.94828,0 2.94828,0 0,-2.9482 0,-2.9483 -2.94828,0 -2.94828,0 0,-2.9483 0,-2.9483 2.94828,0 2.94828,0 0,-2.9482 0,-2.9483 2.94827,0 2.94828,0 0,-2.9483 0,-2.9483 5.89655,0 5.89655,0 0,-2.9483 0,-2.9482 8.84483,0 8.84483,0 0,5.8965 0,5.8966 2.94827,0 2.94828,0 0,-2.9483 0,-2.9483 5.89655,0 5.89655,0 0,-2.9483 0,-2.9482 2.94828,0 2.94827,0 0,8.8448 0,8.8448 2.94828,0 2.94827,0 0,2.9483 0,2.9483 -2.94827,0 -2.94828,0 0,2.9483 0,2.9482 -2.94827,0 -2.94828,0 0,-2.9482 0,-2.9483 -2.94828,0 -2.94827,0 0,2.9483 0,2.9482 -2.94828,0 -2.94827,0 0,2.9483 0,2.9483 2.94827,0 2.94828,0 0,5.8965 0,5.8966 -2.94828,0 -2.94827,0 0,2.9483 0,2.9482 5.89655,0 5.89655,0 0,2.9483 0,2.9483 -5.89655,0 -5.89655,0 0,5.8965 0,5.8966 2.94827,0 2.94828,0 0,2.9483 0,2.9482 8.84483,0 8.84482,0 0,-2.9482 0,-2.9483 -5.89655,0 -5.89655,0 0,-2.9483 0,-2.9483 2.94828,0 2.94827,0 0,-5.8965 0,-5.8966 2.94828,0 2.94827,0 0,-2.9482 0,-2.9483 -2.94827,0 -2.94828,0 0,-2.9483 0,-2.9483 -2.94827,0 -2.94828,0 0,-2.9482 0,-2.9483 2.94828,0 2.94827,0 0,2.9483 0,2.9482 2.94828,0 2.94827,0 0,-2.9482 0,-2.9483 2.94828,0 2.94828,0 0,8.8448 0,8.8448 2.94827,0 2.94828,0 0,-2.9482 0,-2.9483 5.89655,0 5.89655,0 0,5.8965 0,5.8966 -8.84483,0 -8.84482,0 0,-2.9483 0,-2.9483 -2.94828,0 -2.94828,0 0,8.8449 0,8.8448 2.94828,0 2.94828,0 0,-2.9483 0,-2.9483 11.7931,0 11.7931,0 0,-8.8448 0,-8.8448 2.94828,0 2.94828,0 0,2.9483 0,2.9482 8.84482,0 8.84483,0 0,5.8966 0,5.8965 -2.94828,0 -2.94827,0 0,-2.9482 0,-2.9483 -5.89655,0 -5.89655,0 0,11.7931 0,11.7931 5.89655,0 5.89655,0 0,-2.9483 0,-2.9483 -2.94828,0 -2.94827,0 0,-2.9482 0,-2.9483 2.94827,0 2.94828,0 0,2.9483 0,2.9482 2.94827,0 2.94828,0 0,8.8449 0,8.8448 -5.89655,0 -5.89655,0 0,-2.9483 0,-2.9483 -2.94828,0 -2.94827,0 0,2.9483 0,2.9483 -5.89656,0 -5.89655,0 0,2.9483 0,2.9483 -2.94827,0 -2.94828,0 0,2.9482 0,2.9483 -2.94828,0 -2.94827,0 0,-5.8965 0,-5.8966 -2.94828,0 -2.94827,0 0,8.8448 0,8.8449 8.84482,0 8.84483,0 0,-2.9483 0,-2.9483 2.94828,0 2.94827,0 0,2.9483 0,2.9483 2.94828,0 2.94828,0 0,8.8448 0,8.8448 2.94827,0 2.94828,0 0,2.9483 0,2.9483 -2.94828,0 -2.94827,0 0,2.9482 0,2.9483 -2.94828,0 -2.94828,0 0,2.9483 0,2.9483 8.84483,0 8.84483,0 0,2.9482 0,2.94825 2.94827,0 2.94828,0 0,2.9483 0,2.9483 -5.89655,0 -5.89655,0 0,-2.9483 0,-2.9483 -5.89655,0 -5.89656,0 0,2.9483 0,2.9483 2.94828,0 2.94828,0 0,5.8965 0,5.8966 -8.84483,0 -8.84483,0 0,-2.9483 0,-2.9483 -5.89655,0 -5.89655,0 0,2.9483 0,2.9483 -2.94828,0 -2.94828,0 0,-2.9483 0,-2.9483 -5.89655,0 -5.89655,0 0,-2.9483 0,-2.9482 2.94828,0 2.94827,0 0,-11.79305 0,-11.7931 -2.94827,0 -2.94828,0 0,-2.9483 0,-2.9483 2.94828,0 2.94827,0 0,2.9483 0,2.9483 2.94828,0 2.94827,0 0,-5.8966 0,-5.8965 -2.94827,0 -2.94828,0 0,-5.8966 0,-5.8965 -5.89655,0 -5.89655,0 0,17.6896 0,17.6897 2.94827,0 2.94828,0 0,2.9482 0,2.94825 -2.94828,0 -2.94827,0 0,-2.94825 0,-2.9482 -2.94828,0 -2.94827,0 0,-5.8966 0,-5.8965 -2.94828,0 -2.94827,0 0,5.8965 0,5.8966 -2.94828,0 -2.94827,0 0,2.9482 0,2.94825 -5.89656,0 -5.89655,0 0,2.9483 0,2.9483 2.94828,0 2.94827,0 0,2.9482 0,2.9482 2.94828,0 2.94828,0 0,-2.9482 0,-2.9482 2.94827,0 2.94828,0 0,-2.9483 0,-2.9483 2.94827,0 2.94828,0 0,2.9483 0,2.9483 2.94827,0 2.94828,0 0,5.8964 0,5.8966 -5.89655,0 -5.89655,0 0,-2.9483 0,-2.9483 -2.94828,0 -2.94827,0 0,2.9483 0,2.9483 -5.89656,0 -5.89655,0 0,-2.9483 0,-2.9483 -2.94827,0 -2.94828,0 0,2.9483 0,2.9483 -2.94828,0 -2.94827,0 0,-5.8966 z m 35.37931,-2.9483 0,-2.9482 -2.94828,0 -2.94827,0 0,2.9482 0,2.9483 2.94827,0 2.94828,0 0,-2.9483 z m 53.06896,0 0,-2.9482 -5.89655,0 -5.89655,0 0,-5.8966 0,-5.89645 -2.94828,0 -2.94827,0 0,5.89645 0,5.8966 2.94827,0 2.94828,0 0,2.9482 0,2.9483 5.89655,0 5.89655,0 0,-2.9483 z m -23.5862,-8.8447 0,-5.89655 -2.94828,0 -2.94828,0 0,5.89655 0,5.8965 2.94828,0 2.94828,0 0,-5.8965 z m -41.27586,-8.84485 0,-2.9483 -2.94828,0 -2.94828,0 0,2.9483 0,2.9483 2.94828,0 2.94828,0 0,-2.9483 z m -11.79311,-5.8966 0,-2.9482 -2.94827,0 -2.94828,0 0,-2.9483 0,-2.9483 11.7931,0 11.79311,0 0,-2.9483 0,-2.9482 2.94827,0 2.94828,0 0,-2.9483 0,-2.9483 -2.94828,0 -2.94827,0 0,-2.9483 0,-2.9482 2.94827,0 2.94828,0 0,-5.8966 0,-5.8965 -5.89655,0 -5.89655,0 0,-5.8966 0,-5.8966 -2.94828,0 -2.94828,0 0,5.8966 0,5.8966 -5.89655,0 -5.89655,0 0,-2.9483 0,-2.9483 2.94828,0 2.94827,0 0,-5.8966 0,-5.8965 8.84483,0 8.84483,0 0,-5.8966 0,-5.8965 -5.89655,0 -5.89656,0 0,2.9483 0,2.9482 -2.94827,0 -2.94828,0 0,2.9483 0,2.9483 -8.84483,0 -8.84482,0 0,5.8965 0,5.8966 -2.94828,0 -2.94828,0 0,2.9483 0,2.9483 2.94828,0 2.94828,0 0,2.9482 0,2.9483 -5.89656,0 -5.89655,0 0,-2.9483 0,-2.9482 -2.94827,0 -2.94828,0 0,-2.9483 0,-2.9483 2.94828,0 2.94827,0 0,-2.9483 0,-2.9483 2.94828,0 2.94827,0 0,-2.9482 0,-2.9483 -2.94827,0 -2.94828,0 0,-2.9483 0,-2.9483 2.94828,0 2.94827,0 0,-2.9482 0,-2.9483 -2.94827,0 -2.94828,0 0,2.9483 0,2.9482 -8.84483,0 -8.84482,0 0,2.9483 0,2.9483 2.94827,0 2.94828,0 0,2.9483 0,2.9482 2.94827,0 2.94828,0 0,2.9483 0,2.9483 -2.94828,0 -2.94827,0 0,2.9483 0,2.9483 2.94827,0 2.94828,0 0,2.9482 0,2.9483 2.94828,0 2.94827,0 0,2.9483 0,2.9483 -2.94827,0 -2.94828,0 0,2.9482 0,2.9483 5.89655,0 5.89655,0 0,2.9483 0,2.9483 5.89656,0 5.89655,0 0,5.8965 0,5.8966 2.94827,0 2.94828,0 0,2.9482 0,2.9483 2.94828,0 2.94827,0 0,-2.9483 z m -5.89655,-17.6896 0,-2.9483 2.94828,0 2.94827,0 0,2.9483 0,2.9483 -2.94827,0 -2.94828,0 0,-2.9483 z m 11.7931,0 0,-2.9483 2.94828,0 2.94828,0 0,2.9483 0,2.9483 -2.94828,0 -2.94828,0 0,-2.9483 z m -17.68965,-11.7931 0,-2.9483 8.84483,0 8.84482,0 0,2.9483 0,2.9483 -8.84482,0 -8.84483,0 0,-2.9483 z m 0,-17.6897 0,-2.9483 2.94827,0 2.94828,0 0,2.9483 0,2.9483 -2.94828,0 -2.94827,0 0,-2.9483 z m -23.58621,-5.8965 0,-2.9483 2.94828,0 2.94827,0 0,2.9483 0,2.9482 -2.94827,0 -2.94828,0 0,-2.9482 z m 106.13793,47.1724 0,-8.8448 -8.84483,0 -8.84482,0 0,8.8448 0,8.8448 8.84482,0 8.84483,0 0,-8.8448 z m -11.7931,0 0,-2.9483 2.94827,0 2.94828,0 0,2.9483 0,2.9483 -2.94828,0 -2.94827,0 0,-2.9483 z m -5.89655,-17.6897 0,-2.9482 -2.94828,0 -2.94828,0 0,2.9482 0,2.9483 2.94828,0 2.94828,0 0,-2.9483 z m -17.68966,-11.7931 0,-2.9482 2.94828,0 2.94827,0 0,-2.9483 0,-2.9483 5.89655,0 5.89656,0 0,-2.9483 0,-2.9483 2.94827,0 2.94828,0 0,-5.8965 0,-5.8966 -2.94828,0 -2.94827,0 0,2.9483 0,2.9483 -2.94828,0 -2.94828,0 0,2.9483 0,2.9482 -2.94827,0 -2.94828,0 0,2.9483 0,2.9483 -2.94827,0 -2.94828,0 0,-2.9483 0,-2.9483 -2.94828,0 -2.94827,0 0,-5.8965 0,-5.8966 -2.94828,0 -2.94827,0 0,5.8966 0,5.8965 2.94827,0 2.94828,0 0,8.8449 0,8.8448 2.94827,0 2.94828,0 0,-2.9483 z m 35.37931,-11.7931 0,-2.9483 2.94828,0 2.94827,0 0,-8.8448 0,-8.8448 -2.94827,0 -2.94828,0 0,2.9483 0,2.9482 -2.94827,0 -2.94828,0 0,2.9483 0,2.9483 2.94828,0 2.94827,0 0,2.9483 0,2.9482 -2.94827,0 -2.94828,0 0,2.9483 0,2.9483 2.94828,0 2.94827,0 0,-2.9483 z m -76.65517,-20.6379 0,-5.8966 5.89655,0 5.89655,0 0,-5.8965 0,-5.8966 2.94828,0 2.94828,0 0,-2.9482 0,-2.9483 5.89655,0 5.89655,0 0,-5.8966 0,-5.8965 -2.94828,0 -2.94827,0 0,-2.9483 0,-2.9483 2.94827,0 2.94828,0 0,-2.9482 0,-2.9483 -14.74138,0 -14.74138,0 0,-5.8966 0,-5.8965 -2.94828,0 -2.94827,0 0,8.8448 0,8.8448 -2.94828,0 -2.94827,0 0,8.8449 0,8.8448 2.94827,0 2.94828,0 0,2.9483 0,2.9482 2.94827,0 2.94828,0 0,5.8966 0,5.8965 -5.89655,0 -5.89655,0 0,5.8966 0,5.8965 5.89655,0 5.89655,0 0,-5.8965 z m 0,-20.6379 0,-2.9483 -2.94828,0 -2.94827,0 0,-5.8966 0,-5.8965 2.94827,0 2.94828,0 0,5.8965 0,5.8966 5.89655,0 5.89655,0 0,-2.9483 0,-2.9483 -2.94827,0 -2.94828,0 0,-5.8965 0,-5.8966 5.89655,0 5.89656,0 0,2.9483 0,2.9483 2.94827,0 2.94828,0 0,2.9483 0,2.9482 -2.94828,0 -2.94827,0 0,2.9483 0,2.9483 -2.94828,0 -2.94828,0 0,2.9483 0,2.9482 -5.89655,0 -5.89655,0 0,-2.9482 z m 17.68966,-11.7931 0,-2.9483 -2.94828,0 -2.94828,0 0,2.9483 0,2.9482 2.94828,0 2.94828,0 0,-2.9482 z m -35.37932,23.5862 0,-2.9483 -2.94827,0 -2.94828,0 0,2.9483 0,2.9482 2.94828,0 2.94827,0 0,-2.9482 z m -35.37931,-5.8966 0,-2.9483 -2.94827,0 -2.94828,0 0,2.9483 0,2.9483 2.94828,0 2.94827,0 0,-2.9483 z m 82.55173,0 0,-2.9483 -2.94828,0 -2.94827,0 0,2.9483 0,2.9483 2.94827,0 2.94828,0 0,-2.9483 z m -17.68966,-41.2758 0,-2.9483 2.94828,0 2.94828,0 0,2.9483 0,2.9482 2.94827,0 2.94828,0 0,-2.9482 0,-2.9483 -2.94828,0 -2.94827,0 0,-2.9483 0,-2.9483 -5.89656,0 -5.89655,0 0,5.8966 0,5.8965 2.94828,0 2.94827,0 0,-2.9482 z m 23.58621,0 0,-2.9483 -2.94828,0 -2.94827,0 0,2.9483 0,2.9482 2.94827,0 2.94828,0 0,-2.9482 z m 64.86207,153.31015 0,-2.9483 2.94827,0 2.94828,0 0,2.9483 0,2.9483 -2.94828,0 -2.94827,0 0,-2.9483 z m -117.93104,-8.8447 0,-5.8965 2.94828,0 2.94828,0 0,5.8965 0,5.8964 -2.94828,0 -2.94828,0 0,-5.8964 z m 117.93104,-29.48275 0,-5.8965 2.94827,0 2.94828,0 0,5.8965 0,5.8966 -2.94828,0 -2.94827,0 0,-5.8966 z m -5.89655,-14.7414 0,-2.9482 2.94827,0 2.94828,0 0,-5.8966 0,-5.8965 2.94827,0 2.94828,0 0,8.8448 0,8.8448 -5.89655,0 -5.89655,0 0,-2.9483 z M 9,867.99775 l 0,-20.6379 20.63793,0 20.63793,0 0,20.6379 0,20.6379 -20.63793,0 -20.63793,0 0,-20.6379 z m 35.37931,0 0,-14.7414 -14.74138,0 -14.74138,0 0,14.7414 0,14.7414 14.74138,0 14.74138,0 0,-14.7414 z m -23.58621,0 0,-8.8448 8.84483,0 8.84483,0 0,8.8448 0,8.8448 -8.84483,0 -8.84483,0 0,-8.8448 z m 117.93104,0 0,-20.6379 20.63793,0 20.63793,0 0,20.6379 0,20.6379 -20.63793,0 -20.63793,0 0,-20.6379 z m 35.37931,0 0,-14.7414 -14.74138,0 -14.74138,0 0,14.7414 0,14.7414 14.74138,0 14.74138,0 0,-14.7414 z m -23.58621,0 0,-8.8448 8.84483,0 8.84483,0 0,8.8448 0,8.8448 -8.84483,0 -8.84483,0 0,-8.8448 z m -23.58621,-11.7931 0,-2.9483 2.94828,0 2.94828,0 0,2.9483 0,2.9483 -2.94828,0 -2.94828,0 0,-2.9483 z"
       id="path4186"
       inkscape:connector-curvature="0" />
  </g>
</svg>
