<?xml version="1.0" encoding="UTF-8" standalone="no"?>
<!-- Created with Inkscape (http://www.inkscape.org/) -->

<svg
   xmlns:dc="http://purl.org/dc/elements/1.1/"
   xmlns:cc="http://creativecommons.org/ns#"
   xmlns:rdf="http://www.w3.org/1999/02/22-rdf-syntax-ns#"
   xmlns:svg="http://www.w3.org/2000/svg"
   xmlns="http://www.w3.org/2000/svg"
   xmlns:sodipodi="http://sodipodi.sourceforge.net/DTD/sodipodi-0.dtd"
   xmlns:inkscape="http://www.inkscape.org/namespaces/inkscape"
   width="16"
   height="16"
   id="svg2"
   version="1.1"
   inkscape:version="0.48.1 r9760"
   inkscape:export-filename="/Users/siannopollo/Developer/Projects/Iannopollo/blog/public/favicon.png"
   inkscape:export-xdpi="90"
   inkscape:export-ydpi="90"
   sodipodi:docname="favicon.svg">
  <defs
     id="defs4" />
  <sodipodi:namedview
     id="base"
     pagecolor="#ffffff"
     bordercolor="#666666"
     borderopacity="1.0"
     inkscape:pageopacity="0.0"
     inkscape:pageshadow="2"
     inkscape:zoom="31.678384"
     inkscape:cx="4.6448976"
     inkscape:cy="9.1732106"
     inkscape:document-units="px"
     inkscape:current-layer="layer1"
     showgrid="false"
     inkscape:window-width="1586"
     inkscape:window-height="889"
     inkscape:window-x="1680"
     inkscape:window-y="0"
     inkscape:window-maximized="0" />
  <metadata
     id="metadata7">
    <rdf:RDF>
      <cc:Work
         rdf:about="">
        <dc:format>image/svg+xml</dc:format>
        <dc:type
           rdf:resource="http://purl.org/dc/dcmitype/StillImage" />
        <dc:title></dc:title>
      </cc:Work>
    </rdf:RDF>
  </metadata>
  <g
     inkscape:label="Layer 1"
     inkscape:groupmode="layer"
     id="layer1"
     transform="translate(0,-1036.3622)">
    <rect
       id="rect2989"
       width="16"
       height="16"
       x="-5.2836597e-09"
       y="1036.3622"
       style="opacity:0;fill:#ffffff" />
    <g
       style="font-size:11.77857685px;font-style:normal;font-variant:normal;font-weight:normal;font-stretch:normal;line-height:125%;letter-spacing:0px;word-spacing:0px;fill:#000000;fill-opacity:1;stroke:none;font-family:Monospace;-inkscape-font-specification:Monospace"
       id="text2985"
       transform="matrix(1.3333332,0,0,1.3333332,-2.7723395,-348.12053)">
      <path
         d="m 2.0792549,1041.4157 1.449317,0 0,1.7426 -1.449317,0 0,-1.7426 m 0,4.3594 1.449317,0 0,1.7541 -1.449317,0 0,-1.7541"
         id="path2986"
         inkscape:connector-curvature="0"
         sodipodi:nodetypes="cccccccccc" />
      <path
         d="m 6.3998878,1043.8312 2.9964055,0 0,0.9432 -2.9964055,0 0,-0.9432"
         id="path2988"
         inkscape:connector-curvature="0"
         sodipodi:nodetypes="ccccc" />
      <path
         d="m 11.439428,1039.117 0.920201,0 c 0.578957,0.9049 1.010301,1.7906 1.294033,2.6571 0.283725,0.8665 0.425589,1.7273 0.425594,2.5823 -5e-6,0.8627 -0.141869,1.7273 -0.425594,2.5938 -0.283732,0.8665 -0.715076,1.7522 -1.294033,2.6571 l -0.920201,0 c 0.509942,-0.8895 0.889525,-1.7695 1.138749,-2.6398 0.253052,-0.8704 0.37958,-1.7408 0.379583,-2.6111 -3e-6,-0.8742 -0.126531,-1.7465 -0.379583,-2.6168 -0.249224,-0.8704 -0.628807,-1.7446 -1.138749,-2.6226"
         id="path2990"
         inkscape:connector-curvature="0"
         sodipodi:nodetypes="ccscscccscc" />
    </g>
  </g>
</svg>
